<svg width="36" height="45" viewBox="0 0 36 45" fill="none" xmlns="http://www.w3.org/2000/svg">
<path d="M33.597 8.01122L27.8912 2.11069C27.8885 2.10788 27.8857 2.10497 27.883 2.10216C26.5693 0.766219 24.7412 0 22.8678 0H4.76562C2.43941 0 0.546875 1.89253 0.546875 4.21875V40.6875C0.546875 43.0137 2.43941 44.9062 4.76562 44.9062H22.8022C21.1857 42.627 20.2344 39.8445 20.2344 36.8438C20.2344 29.1413 26.5007 22.875 34.2031 22.875C34.6777 22.875 35.1467 22.8988 35.6094 22.9447V12.9356C35.6094 11.0823 34.8947 9.33375 33.597 8.01122ZM15.4531 31.4062H7.95312C7.1765 31.4062 6.54688 30.7766 6.54688 30C6.54688 29.2234 7.1765 28.5938 7.95312 28.5938H15.4531C16.2297 28.5938 16.8594 29.2234 16.8594 30C16.8594 30.7766 16.2297 31.4062 15.4531 31.4062ZM15.4531 23.9062H7.95312C7.1765 23.9062 6.54688 23.2766 6.54688 22.5C6.54688 21.7234 7.1765 21.0938 7.95312 21.0938H15.4531C16.2297 21.0938 16.8594 21.7234 16.8594 22.5C16.8594 23.2766 16.2297 23.9062 15.4531 23.9062ZM15.4531 16.4062H7.95312C7.1765 16.4062 6.54688 15.7766 6.54688 15C6.54688 14.2234 7.1765 13.5938 7.95312 13.5938H15.4531C16.2297 13.5938 16.8594 14.2234 16.8594 15C16.8594 15.7766 16.2297 16.4062 15.4531 16.4062ZM24.4531 23.9062H22.9531C22.1765 23.9062 21.5469 23.2766 21.5469 22.5C21.5469 21.7234 22.1765 21.0938 22.9531 21.0938H24.4531C25.2297 21.0938 25.8594 21.7234 25.8594 22.5C25.8594 23.2766 25.2297 23.9062 24.4531 23.9062ZM24.4531 16.4062H22.9531C22.1765 16.4062 21.5469 15.7766 21.5469 15C21.5469 14.2234 22.1765 13.5938 22.9531 13.5938H24.4531C25.2297 13.5938 25.8594 14.2234 25.8594 15C25.8594 15.7766 25.2297 16.4062 24.4531 16.4062Z" fill="#753ED6"/>
</svg>
