<svg width="36" height="48" viewBox="0 0 36 48" fill="none" xmlns="http://www.w3.org/2000/svg">
<path d="M33.75 0H6.9375C3.52566 0 0.75 2.77566 0.75 6.1875V41.25C0.75 44.972 3.77803 48 7.5 48H33.75C34.5785 48 35.25 47.3284 35.25 46.5C35.25 45.6716 34.5785 45 33.75 45H7.5C5.43225 45 3.75 43.3177 3.75 41.25C3.75 39.1823 5.43225 37.5 7.5 37.5H33.75C34.5785 37.5 35.25 36.8284 35.25 36V1.5C35.25 0.671625 34.5785 0 33.75 0ZM3.75 34.8217V6.1875C3.75 4.42706 5.17706 3 6.9375 3H7.03125C7.29009 3 7.5 3.20991 7.5 3.46875V34.0466C7.5 34.2918 7.31128 34.4981 7.06669 34.5138C6.12122 34.5741 5.22816 34.83 4.42744 35.2413C4.11778 35.4003 3.75 35.1697 3.75 34.8217Z" fill="#753ED6"/>
</svg>
